<svg id="Layer_1" data-name="Layer 1" xmlns="http://www.w3.org/2000/svg" xmlns:xlink="http://www.w3.org/1999/xlink" viewBox="0 0 484.26 484.26"><defs><style>.cls-1,.cls-3{fill:none;}.cls-2{fill:#fff;}.cls-3{stroke:#2e3192;stroke-miterlimit:10;}.cls-4{fill:#ccc;}.cls-5{clip-path:url(#clip-path);}.cls-6{fill:#7b7b7e;}</style><clipPath id="clip-path" transform="translate(-9.32 -9.32)"><path id="SVGID" class="cls-1" d="M184.21,235.78,350.86,390.65a3.29,3.29,0,0,0,4.53-.35l34.9-34.9a3.29,3.29,0,0,0,.35-4.54L235.79,184.21a2.77,2.77,0,0,0-4,.18l-47.43,47.42A2.77,2.77,0,0,0,184.21,235.78Z"/></clipPath></defs><title>pen3</title><path class="cls-2" d="M12.2,12.2c4.71,10.89,13,44.18,14.25,57.37S37.79,84.21,46.51,89.64,85.2,111,85.2,111l9.89-9.89,6-6L111,85.2s-16-30-21.38-38.69S82.77,27.69,69.57,26.44,23.09,16.9,12.2,12.2Z" transform="translate(-9.32 -9.32)"/><path class="cls-3" d="M0,0" transform="translate(-9.32 -9.32)"/><path class="cls-2" d="M98.29,85.66H158a0,0,0,0,1,0,0v83.82a1.19,1.19,0,0,1-1.19,1.19H99.48a1.19,1.19,0,0,1-1.19-1.19V85.66a0,0,0,0,1,0,0Z" transform="translate(300.11 118.85) rotate(135)"/><rect class="cls-2" x="152.03" y="177.76" width="63.98" height="12.51" transform="translate(434.94 174.7) rotate(135)"/><rect class="cls-2" x="160.13" y="187.79" width="59.76" height="4.43" transform="translate(449.4 180.69) rotate(135)"/><rect class="cls-2" x="164.01" y="189.74" width="63.98" height="12.51" transform="translate(463.86 186.68) rotate(135)"/><rect class="cls-2" x="172.1" y="199.77" width="59.76" height="4.43" transform="translate(478.32 192.67) rotate(135)"/><polygon class="cls-2" points="175.15 222.41 222.41 175.15 216.45 172.02 172.02 216.45 175.15 222.41"/><rect class="cls-2" x="348.71" y="371.91" width="52.83" height="6.43" transform="translate(896.31 365.8) rotate(135)"/><path class="cls-2" d="M379.35,416.71l37.36-37.36-17.77-19a3.26,3.26,0,0,0-4.67.22l-33.73,33.73a3.26,3.26,0,0,0-.22,4.67Z" transform="translate(-9.32 -9.32)"/><path class="cls-2" d="M469.43,488.91l19.48-19.48c3.79-3.79,4.21-9.56.95-13l-73.15-77.08-37.36,37.36,77.08,73.15C459.87,493.12,465.64,492.7,469.43,488.91Z" transform="translate(-9.32 -9.32)"/><rect class="cls-2" x="131.26" y="157.02" width="59.76" height="8.25" transform="translate(379.72 151.82) rotate(135)"/><rect class="cls-2" x="142.08" y="160.79" width="59.76" height="22.35" transform="translate(405.83 162.64) rotate(135)"/><line class="cls-2" x1="178.58" y1="136.32" x2="138.29" y2="180.55"/><line class="cls-2" x1="182.72" y1="140.46" x2="142.63" y2="184.89"/><line class="cls-2" x1="187.06" y1="144.8" x2="146.97" y2="189.23"/><line class="cls-2" x1="193.86" y1="164.38" x2="185.28" y2="155.81"/><line class="cls-2" x1="186.52" y1="171.72" x2="177.94" y2="163.14"/><line class="cls-2" x1="179.19" y1="179.06" x2="170.61" y2="170.48"/><line class="cls-2" x1="171.85" y1="186.39" x2="163.27" y2="177.81"/><line class="cls-2" x1="164.51" y1="193.73" x2="155.94" y2="185.15"/><path class="cls-4" d="M94.73,101.49l3-3L11.84,12.55c4.71,10.89,13,44.18,14.25,57.37S37.43,84.57,46.16,90s38.69,21.38,38.69,21.38Z" transform="translate(-9.32 -9.32)"/><rect class="cls-4" x="104.53" y="98.6" width="22.8" height="82.68" transform="translate(-74.32 113.64) rotate(-45)"/><polygon class="cls-4" points="170 212.26 175.15 222.41 192.65 204.91 185 197.26 170 212.26"/><polygon class="cls-4" points="150.4 158.3 148.22 160.48 142.41 154.67 127.41 169.67 133.22 175.48 133.61 175.87 149.15 191.4 166.32 174.22 150.4 158.3"/><rect class="cls-4" x="164.47" y="188.49" width="27.67" height="28.2" transform="translate(-100.35 176.1) rotate(-45)"/><path class="cls-4" d="M392.92,403.14l-20.37-20.37,1.71-1.71-4.81-4.81L354,391.7l4.81,4.81h0l20.37,20.37,77,72.75a8.62,8.62,0,0,0,12-.17l5.53-5.53Z" transform="translate(-9.32 -9.32)"/><line class="cls-2" x1="205.57" y1="176.09" x2="196.99" y2="167.52"/><line class="cls-2" x1="198.23" y1="183.43" x2="189.65" y2="174.85"/><line class="cls-2" x1="190.9" y1="190.77" x2="182.32" y2="182.19"/><line class="cls-2" x1="183.56" y1="198.1" x2="174.98" y2="189.52"/><line class="cls-2" x1="176.22" y1="205.44" x2="167.65" y2="196.86"/><path class="cls-2" d="M184.21,235.78,350.86,390.65a3.29,3.29,0,0,0,4.53-.35l34.9-34.9a3.29,3.29,0,0,0,.35-4.54L235.79,184.21a2.77,2.77,0,0,0-4,.18l-47.43,47.42A2.77,2.77,0,0,0,184.21,235.78Z" transform="translate(-9.32 -9.32)"/><g class="cls-5"><polygon class="cls-6" points="352.72 325.14 352.72 318.31 349.3 321.73 352.72 325.14"/><polygon class="cls-6" points="349.3 321.73 345.88 318.31 345.88 325.14 349.3 321.73"/><polygon class="cls-6" points="345.88 325.14 342.47 321.73 339.05 325.14 345.88 325.14"/><polygon class="cls-6" points="342.47 321.73 345.88 318.31 339.05 318.31 342.47 321.73"/><polygon class="cls-6" points="345.88 331.98 345.88 325.14 342.47 328.56 345.88 331.98"/><polygon class="cls-6" points="342.47 328.56 339.05 325.14 339.05 331.98 342.47 328.56"/><polygon class="cls-6" points="335.63 328.56 332.21 331.98 339.05 331.98 335.63 328.56"/><polygon class="cls-6" points="335.63 328.56 339.05 325.14 332.21 325.14 335.63 328.56"/><polygon class="cls-6" points="345.88 318.31 345.88 311.47 342.47 314.89 345.88 318.31"/><polygon class="cls-6" points="342.47 314.89 339.05 311.47 339.05 318.31 342.47 314.89"/><polygon class="cls-6" points="339.05 318.31 335.63 314.89 332.21 318.31 339.05 318.31"/><polygon class="cls-6" points="335.63 314.89 339.05 311.47 332.21 311.47 335.63 314.89"/><polygon class="cls-6" points="339.05 325.14 339.05 318.31 335.63 321.73 339.05 325.14"/><polygon class="cls-6" points="335.63 321.73 332.21 318.31 332.21 325.14 335.63 321.73"/><polygon class="cls-6" points="328.79 321.73 325.37 325.14 332.21 325.14 328.79 321.73"/><polygon class="cls-6" points="328.79 321.73 332.21 318.31 325.37 318.31 328.79 321.73"/><polygon class="cls-6" points="362.98 335.4 366.39 338.82 366.39 331.98 362.98 335.4"/><polygon class="cls-6" points="359.56 338.82 362.98 335.4 359.56 331.98 359.56 338.82"/><polygon class="cls-6" points="352.72 338.82 359.56 338.82 356.14 335.4 352.72 338.82"/><polygon class="cls-6" points="356.14 335.4 359.56 331.98 352.72 331.98 356.14 335.4"/><polygon class="cls-6" points="356.14 342.24 359.56 345.65 359.56 338.82 356.14 342.24"/><polygon class="cls-6" points="352.72 345.65 356.14 342.24 352.72 338.82 352.72 345.65"/><polygon class="cls-6" points="345.88 345.65 352.72 345.65 349.3 342.24 345.88 345.65"/><polygon class="cls-6" points="349.3 342.24 352.72 338.82 345.88 338.82 349.3 342.24"/><polygon class="cls-6" points="359.56 331.98 359.56 325.14 356.14 328.56 359.56 331.98"/><polygon class="cls-6" points="356.14 328.56 352.72 325.14 352.72 331.98 356.14 328.56"/><polygon class="cls-6" points="352.72 331.98 349.3 328.56 345.88 331.98 352.72 331.98"/><polygon class="cls-6" points="349.3 328.56 352.72 325.14 345.88 325.14 349.3 328.56"/><polygon class="cls-6" points="349.3 335.4 352.72 338.82 352.72 331.98 349.3 335.4"/><polygon class="cls-6" points="345.88 338.82 349.3 335.4 345.88 331.98 345.88 338.82"/><polygon class="cls-6" points="339.05 338.82 345.88 338.82 342.47 335.4 339.05 338.82"/><polygon class="cls-6" points="342.47 335.4 345.88 331.98 339.05 331.98 342.47 335.4"/><polygon class="cls-6" points="380.07 352.49 380.07 345.65 376.65 349.07 380.07 352.49"/><polygon class="cls-6" points="373.23 352.49 376.65 349.07 373.23 345.65 373.23 352.49"/><polygon class="cls-6" points="366.39 352.49 373.23 352.49 369.81 349.07 366.39 352.49"/><polygon class="cls-6" points="369.81 349.07 373.23 345.65 366.39 345.65 369.81 349.07"/><polygon class="cls-6" points="373.23 359.33 373.23 352.49 369.81 355.91 373.23 359.33"/><polygon class="cls-6" points="366.39 359.33 369.81 355.91 366.39 352.49 366.39 359.33"/><polygon class="cls-6" points="359.56 359.33 366.39 359.33 362.98 355.91 359.56 359.33"/><polygon class="cls-6" points="362.98 355.91 366.39 352.49 359.56 352.49 362.98 355.91"/><polygon class="cls-6" points="369.81 342.24 373.23 345.65 373.23 338.82 369.81 342.24"/><polygon class="cls-6" points="366.39 345.65 369.81 342.24 366.39 338.82 366.39 345.65"/><polygon class="cls-6" points="359.56 345.65 366.39 345.65 362.98 342.24 359.56 345.65"/><polygon class="cls-6" points="362.98 342.24 366.39 338.82 359.56 338.82 362.98 342.24"/><polygon class="cls-6" points="362.98 349.07 366.39 352.49 366.39 345.65 362.98 349.07"/><polygon class="cls-6" points="359.56 352.49 362.98 349.07 359.56 345.65 359.56 352.49"/><polygon class="cls-6" points="352.72 352.49 359.56 352.49 356.14 349.07 352.72 352.49"/><polygon class="cls-6" points="356.14 349.07 359.56 345.65 352.72 345.65 356.14 349.07"/><polygon class="cls-6" points="359.56 311.47 356.14 308.05 352.72 311.47 359.56 311.47"/><polygon class="cls-6" points="359.56 318.31 359.56 311.47 356.14 314.89 359.56 318.31"/><polygon class="cls-6" points="356.14 314.89 352.72 311.47 352.72 318.31 356.14 314.89"/><polygon class="cls-6" points="352.72 318.31 349.3 314.89 345.88 318.31 352.72 318.31"/><polygon class="cls-6" points="349.3 314.89 352.72 311.47 345.88 311.47 349.3 314.89"/><polygon class="cls-6" points="352.72 304.63 349.3 301.21 345.88 304.63 352.72 304.63"/><polygon class="cls-6" points="352.72 311.47 352.72 304.63 349.3 308.05 352.72 311.47"/><polygon class="cls-6" points="349.3 308.05 345.88 304.63 345.88 311.47 349.3 308.05"/><polygon class="cls-6" points="345.88 311.47 342.47 308.05 339.05 311.47 345.88 311.47"/><polygon class="cls-6" points="342.47 308.05 345.88 304.63 339.05 304.63 342.47 308.05"/><polygon class="cls-6" points="373.23 331.98 373.23 325.14 369.81 328.56 373.23 331.98"/><polygon class="cls-6" points="369.81 328.56 366.39 325.14 366.39 331.98 369.81 328.56"/><polygon class="cls-6" points="366.39 331.98 362.98 328.56 359.56 331.98 366.39 331.98"/><polygon class="cls-6" points="362.98 328.56 366.39 325.14 359.56 325.14 362.98 328.56"/><polygon class="cls-6" points="366.39 318.31 362.98 314.89 359.56 318.31 366.39 318.31"/><polygon class="cls-6" points="366.39 325.14 366.39 318.31 362.98 321.73 366.39 325.14"/><polygon class="cls-6" points="362.98 321.73 359.56 318.31 359.56 325.14 362.98 321.73"/><polygon class="cls-6" points="359.56 325.14 356.14 321.73 352.72 325.14 359.56 325.14"/><polygon class="cls-6" points="356.14 321.73 359.56 318.31 352.72 318.31 356.14 321.73"/><polygon class="cls-6" points="380.07 345.65 383.49 342.24 380.07 338.82 380.07 345.65"/><polygon class="cls-6" points="373.23 345.65 380.07 345.65 376.65 342.24 373.23 345.65"/><polygon class="cls-6" points="376.65 342.24 380.07 338.82 373.23 338.82 376.65 342.24"/><polygon class="cls-6" points="376.65 335.4 380.07 338.82 380.07 331.98 376.65 335.4"/><polygon class="cls-6" points="373.23 338.82 376.65 335.4 373.23 331.98 373.23 338.82"/><polygon class="cls-6" points="366.39 338.82 373.23 338.82 369.81 335.4 366.39 338.82"/><polygon class="cls-6" points="369.81 335.4 373.23 331.98 366.39 331.98 369.81 335.4"/><polygon class="cls-6" points="311.7 284.12 311.7 277.29 308.28 280.7 311.7 284.12"/><polygon class="cls-6" points="308.28 280.7 304.86 277.29 304.86 284.12 308.28 280.7"/><polygon class="cls-6" points="304.86 284.12 301.44 280.7 298.03 284.12 304.86 284.12"/><polygon class="cls-6" points="301.44 280.7 304.86 277.29 298.03 277.29 301.44 280.7"/><polygon class="cls-6" points="304.86 290.96 304.86 284.12 301.44 287.54 304.86 290.96"/><polygon class="cls-6" points="301.44 287.54 298.03 284.12 298.03 290.96 301.44 287.54"/><polygon class="cls-6" points="294.61 287.54 291.19 290.96 298.03 290.96 294.61 287.54"/><polygon class="cls-6" points="294.61 287.54 298.03 284.12 291.19 284.12 294.61 287.54"/><polygon class="cls-6" points="304.86 277.29 304.86 270.45 301.44 273.87 304.86 277.29"/><polygon class="cls-6" points="301.44 273.87 298.03 270.45 298.03 277.29 301.44 273.87"/><polygon class="cls-6" points="298.03 277.29 294.61 273.87 291.19 277.29 298.03 277.29"/><polygon class="cls-6" points="294.61 273.87 298.03 270.45 291.19 270.45 294.61 273.87"/><polygon class="cls-6" points="298.03 284.12 298.03 277.29 294.61 280.7 298.03 284.12"/><polygon class="cls-6" points="294.61 280.7 291.19 277.29 291.19 284.12 294.61 280.7"/><polygon class="cls-6" points="287.77 280.7 284.35 284.12 291.19 284.12 287.77 280.7"/><polygon class="cls-6" points="287.77 280.7 291.19 277.29 284.35 277.29 287.77 280.7"/><polygon class="cls-6" points="325.37 297.8 325.37 290.96 321.96 294.38 325.37 297.8"/><polygon class="cls-6" points="321.96 294.38 318.54 290.96 318.54 297.8 321.96 294.38"/><polygon class="cls-6" points="318.54 297.8 315.12 294.38 311.7 297.8 318.54 297.8"/><polygon class="cls-6" points="315.12 294.38 318.54 290.96 311.7 290.96 315.12 294.38"/><polygon class="cls-6" points="318.54 304.63 318.54 297.8 315.12 301.21 318.54 304.63"/><polygon class="cls-6" points="315.12 301.21 311.7 297.8 311.7 304.63 315.12 301.21"/><polygon class="cls-6" points="308.28 301.21 304.86 304.63 311.7 304.63 308.28 301.21"/><polygon class="cls-6" points="308.28 301.21 311.7 297.8 304.86 297.8 308.28 301.21"/><polygon class="cls-6" points="318.54 290.96 318.54 284.12 315.12 287.54 318.54 290.96"/><polygon class="cls-6" points="315.12 287.54 311.7 284.12 311.7 290.96 315.12 287.54"/><polygon class="cls-6" points="311.7 290.96 308.28 287.54 304.86 290.96 311.7 290.96"/><polygon class="cls-6" points="308.28 287.54 311.7 284.12 304.86 284.12 308.28 287.54"/><polygon class="cls-6" points="311.7 297.8 311.7 290.96 308.28 294.38 311.7 297.8"/><polygon class="cls-6" points="308.28 294.38 304.86 290.96 304.86 297.8 308.28 294.38"/><polygon class="cls-6" points="301.44 294.38 298.03 297.8 304.86 297.8 301.44 294.38"/><polygon class="cls-6" points="301.44 294.38 304.86 290.96 298.03 290.96 301.44 294.38"/><polygon class="cls-6" points="339.05 311.47 339.05 304.63 335.63 308.05 339.05 311.47"/><polygon class="cls-6" points="335.63 308.05 332.21 304.63 332.21 311.47 335.63 308.05"/><polygon class="cls-6" points="332.21 311.47 328.79 308.05 325.37 311.47 332.21 311.47"/><polygon class="cls-6" points="328.79 308.05 332.21 304.63 325.37 304.63 328.79 308.05"/><polygon class="cls-6" points="332.21 318.31 332.21 311.47 328.79 314.89 332.21 318.31"/><polygon class="cls-6" points="328.79 314.89 325.37 311.47 325.37 318.31 328.79 314.89"/><polygon class="cls-6" points="321.96 314.89 318.54 318.31 325.37 318.31 321.96 314.89"/><polygon class="cls-6" points="321.96 314.89 325.37 311.47 318.54 311.47 321.96 314.89"/><polygon class="cls-6" points="332.21 304.63 332.21 297.8 328.79 301.21 332.21 304.63"/><polygon class="cls-6" points="328.79 301.21 325.37 297.8 325.37 304.63 328.79 301.21"/><polygon class="cls-6" points="325.37 304.63 321.96 301.21 318.54 304.63 325.37 304.63"/><polygon class="cls-6" points="321.96 301.21 325.37 297.8 318.54 297.8 321.96 301.21"/><polygon class="cls-6" points="325.37 311.47 325.37 304.63 321.96 308.05 325.37 311.47"/><polygon class="cls-6" points="321.96 308.05 318.54 304.63 318.54 311.47 321.96 308.05"/><polygon class="cls-6" points="315.12 308.05 311.7 311.47 318.54 311.47 315.12 308.05"/><polygon class="cls-6" points="315.12 308.05 318.54 304.63 311.7 304.63 315.12 308.05"/><polygon class="cls-6" points="318.54 270.45 315.12 267.03 311.7 270.45 318.54 270.45"/><polygon class="cls-6" points="318.54 277.29 318.54 270.45 315.12 273.87 318.54 277.29"/><polygon class="cls-6" points="315.12 273.87 311.7 270.45 311.7 277.29 315.12 273.87"/><polygon class="cls-6" points="311.7 277.29 308.28 273.87 304.86 277.29 311.7 277.29"/><polygon class="cls-6" points="308.28 273.87 311.7 270.45 304.86 270.45 308.28 273.87"/><polygon class="cls-6" points="311.7 263.61 308.28 260.19 304.86 263.61 311.7 263.61"/><polygon class="cls-6" points="311.7 270.45 311.7 263.61 308.28 267.03 311.7 270.45"/><polygon class="cls-6" points="308.28 267.03 304.86 263.61 304.86 270.45 308.28 267.03"/><polygon class="cls-6" points="304.86 270.45 301.44 267.03 298.03 270.45 304.86 270.45"/><polygon class="cls-6" points="301.44 267.03 304.86 263.61 298.03 263.61 301.44 267.03"/><polygon class="cls-6" points="332.21 284.12 328.79 280.7 325.37 284.12 332.21 284.12"/><polygon class="cls-6" points="332.21 290.96 332.21 284.12 328.79 287.54 332.21 290.96"/><polygon class="cls-6" points="328.79 287.54 325.37 284.12 325.37 290.96 328.79 287.54"/><polygon class="cls-6" points="325.37 290.96 321.96 287.54 318.54 290.96 325.37 290.96"/><polygon class="cls-6" points="321.96 287.54 325.37 284.12 318.54 284.12 321.96 287.54"/><polygon class="cls-6" points="325.37 277.29 321.96 273.87 318.54 277.29 325.37 277.29"/><polygon class="cls-6" points="325.37 284.12 325.37 277.29 321.96 280.7 325.37 284.12"/><polygon class="cls-6" points="321.96 280.7 318.54 277.29 318.54 284.12 321.96 280.7"/><polygon class="cls-6" points="318.54 284.12 315.12 280.7 311.7 284.12 318.54 284.12"/><polygon class="cls-6" points="315.12 280.7 318.54 277.29 311.7 277.29 315.12 280.7"/><polygon class="cls-6" points="345.88 297.8 342.47 294.38 339.05 297.8 345.88 297.8"/><polygon class="cls-6" points="345.88 304.63 345.88 297.8 342.47 301.21 345.88 304.63"/><polygon class="cls-6" points="342.47 301.21 339.05 297.8 339.05 304.63 342.47 301.21"/><polygon class="cls-6" points="339.05 304.63 335.63 301.21 332.21 304.63 339.05 304.63"/><polygon class="cls-6" points="335.63 301.21 339.05 297.8 332.21 297.8 335.63 301.21"/><polygon class="cls-6" points="339.05 290.96 335.63 287.54 332.21 290.96 339.05 290.96"/><polygon class="cls-6" points="339.05 297.8 339.05 290.96 335.63 294.38 339.05 297.8"/><polygon class="cls-6" points="335.63 294.38 332.21 290.96 332.21 297.8 335.63 294.38"/><polygon class="cls-6" points="332.21 297.8 328.79 294.38 325.37 297.8 332.21 297.8"/><polygon class="cls-6" points="328.79 294.38 332.21 290.96 325.37 290.96 328.79 294.38"/><polygon class="cls-6" points="321.96 349.07 325.37 352.49 325.37 345.65 321.96 349.07"/><polygon class="cls-6" points="318.54 345.65 318.54 352.49 321.96 349.07 318.54 345.65"/><polygon class="cls-6" points="315.12 349.07 311.7 352.49 318.54 352.49 315.12 349.07"/><polygon class="cls-6" points="311.7 345.65 315.12 349.07 318.54 345.65 311.7 345.65"/><polygon class="cls-6" points="315.12 355.91 318.54 359.33 318.54 352.49 315.12 355.91"/><polygon class="cls-6" points="311.7 352.49 311.7 359.33 315.12 355.91 311.7 352.49"/><polygon class="cls-6" points="315.12 342.24 318.54 345.65 318.54 338.82 315.12 342.24"/><polygon class="cls-6" points="311.7 338.82 311.7 345.65 315.12 342.24 311.7 338.82"/><polygon class="cls-6" points="308.28 342.24 304.86 345.65 311.7 345.65 308.28 342.24"/><polygon class="cls-6" points="304.86 338.82 308.28 342.24 311.7 338.82 304.86 338.82"/><polygon class="cls-6" points="308.28 349.07 311.7 352.49 311.7 345.65 308.28 349.07"/><polygon class="cls-6" points="304.86 345.65 304.86 352.49 308.28 349.07 304.86 345.65"/><polygon class="cls-6" points="335.63 362.75 339.05 366.16 339.05 359.33 335.63 362.75"/><polygon class="cls-6" points="332.21 359.33 332.21 366.16 335.63 362.75 332.21 359.33"/><polygon class="cls-6" points="328.79 362.75 325.37 366.16 332.21 366.16 328.79 362.75"/><polygon class="cls-6" points="325.37 359.33 328.79 362.75 332.21 359.33 325.37 359.33"/><polygon class="cls-6" points="328.79 369.58 332.21 373 332.21 366.16 328.79 369.58"/><polygon class="cls-6" points="325.37 366.16 325.37 373 328.79 369.58 325.37 366.16"/><polygon class="cls-6" points="328.79 355.91 332.21 359.33 332.21 352.49 328.79 355.91"/><polygon class="cls-6" points="325.37 352.49 325.37 359.33 328.79 355.91 325.37 352.49"/><polygon class="cls-6" points="321.96 355.91 318.54 359.33 325.37 359.33 321.96 355.91"/><polygon class="cls-6" points="318.54 352.49 321.96 355.91 325.37 352.49 318.54 352.49"/><polygon class="cls-6" points="321.96 362.75 325.37 366.16 325.37 359.33 321.96 362.75"/><polygon class="cls-6" points="318.54 359.33 318.54 366.16 321.96 362.75 318.54 359.33"/><polygon class="cls-6" points="352.72 379.84 352.72 373 349.3 376.42 352.72 379.84"/><polygon class="cls-6" points="345.88 379.84 349.3 376.42 345.88 373 345.88 379.84"/><polygon class="cls-6" points="339.05 379.84 345.88 379.84 342.47 376.42 339.05 379.84"/><polygon class="cls-6" points="342.47 376.42 345.88 373 339.05 373 342.47 376.42"/><polygon class="cls-6" points="345.88 386.67 345.88 379.84 342.47 383.26 345.88 386.67"/><polygon class="cls-6" points="339.05 386.67 342.47 383.26 339.05 379.84 339.05 386.67"/><polygon class="cls-6" points="342.47 369.58 345.88 373 345.88 366.16 342.47 369.58"/><polygon class="cls-6" points="339.05 373 342.47 369.58 339.05 366.16 339.05 373"/><polygon class="cls-6" points="335.63 369.58 332.21 373 339.05 373 335.63 369.58"/><polygon class="cls-6" points="332.21 366.16 335.63 369.58 339.05 366.16 332.21 366.16"/><polygon class="cls-6" points="335.63 376.42 339.05 379.84 339.05 373 335.63 376.42"/><polygon class="cls-6" points="332.21 373 332.21 379.84 335.63 376.42 332.21 373"/><polygon class="cls-6" points="335.63 335.4 339.05 338.82 339.05 331.98 335.63 335.4"/><polygon class="cls-6" points="332.21 331.98 332.21 338.82 335.63 335.4 332.21 331.98"/><polygon class="cls-6" points="328.79 335.4 325.37 338.82 332.21 338.82 328.79 335.4"/><polygon class="cls-6" points="325.37 331.98 328.79 335.4 332.21 331.98 325.37 331.98"/><polygon class="cls-6" points="328.79 342.24 332.21 345.65 332.21 338.82 328.79 342.24"/><polygon class="cls-6" points="325.37 338.82 325.37 345.65 328.79 342.24 325.37 338.82"/><polygon class="cls-6" points="321.96 342.24 318.54 345.65 325.37 345.65 321.96 342.24"/><polygon class="cls-6" points="318.54 338.82 321.96 342.24 325.37 338.82 318.54 338.82"/><polygon class="cls-6" points="328.79 328.56 332.21 331.98 332.21 325.14 328.79 328.56"/><polygon class="cls-6" points="325.37 325.14 325.37 331.98 328.79 328.56 325.37 325.14"/><polygon class="cls-6" points="321.96 328.56 318.54 331.98 325.37 331.98 321.96 328.56"/><polygon class="cls-6" points="318.54 325.14 321.96 328.56 325.37 325.14 318.54 325.14"/><polygon class="cls-6" points="321.96 335.4 325.37 338.82 325.37 331.98 321.96 335.4"/><polygon class="cls-6" points="318.54 331.98 318.54 338.82 321.96 335.4 318.54 331.98"/><polygon class="cls-6" points="315.12 335.4 311.7 338.82 318.54 338.82 315.12 335.4"/><polygon class="cls-6" points="311.7 331.98 315.12 335.4 318.54 331.98 311.7 331.98"/><polygon class="cls-6" points="349.3 349.07 352.72 352.49 352.72 345.65 349.3 349.07"/><polygon class="cls-6" points="345.88 352.49 349.3 349.07 345.88 345.65 345.88 352.49"/><polygon class="cls-6" points="339.05 352.49 345.88 352.49 342.47 349.07 339.05 352.49"/><polygon class="cls-6" points="342.47 349.07 345.88 345.65 339.05 345.65 342.47 349.07"/><polygon class="cls-6" points="342.47 355.91 345.88 359.33 345.88 352.49 342.47 355.91"/><polygon class="cls-6" points="339.05 359.33 342.47 355.91 339.05 352.49 339.05 359.33"/><polygon class="cls-6" points="335.63 355.91 332.21 359.33 339.05 359.33 335.63 355.91"/><polygon class="cls-6" points="332.21 352.49 335.63 355.91 339.05 352.49 332.21 352.49"/><polygon class="cls-6" points="342.47 342.24 345.88 345.65 345.88 338.82 342.47 342.24"/><polygon class="cls-6" points="339.05 345.65 342.47 342.24 339.05 338.82 339.05 345.65"/><polygon class="cls-6" points="335.63 342.24 332.21 345.65 339.05 345.65 335.63 342.24"/><polygon class="cls-6" points="332.21 338.82 335.63 342.24 339.05 338.82 332.21 338.82"/><polygon class="cls-6" points="335.63 349.07 339.05 352.49 339.05 345.65 335.63 349.07"/><polygon class="cls-6" points="332.21 345.65 332.21 352.49 335.63 349.07 332.21 345.65"/><polygon class="cls-6" points="328.79 349.07 325.37 352.49 332.21 352.49 328.79 349.07"/><polygon class="cls-6" points="325.37 345.65 328.79 349.07 332.21 345.65 325.37 345.65"/><polygon class="cls-6" points="366.39 366.16 366.39 359.33 362.98 362.75 366.39 366.16"/><polygon class="cls-6" points="359.56 366.16 362.98 362.75 359.56 359.33 359.56 366.16"/><polygon class="cls-6" points="352.72 366.16 359.56 366.16 356.14 362.75 352.72 366.16"/><polygon class="cls-6" points="356.14 362.75 359.56 359.33 352.72 359.33 356.14 362.75"/><polygon class="cls-6" points="359.56 373 359.56 366.16 356.14 369.58 359.56 373"/><polygon class="cls-6" points="352.72 373 356.14 369.58 352.72 366.16 352.72 373"/><polygon class="cls-6" points="345.88 373 352.72 373 349.3 369.58 345.88 373"/><polygon class="cls-6" points="349.3 369.58 352.72 366.16 345.88 366.16 349.3 369.58"/><polygon class="cls-6" points="356.14 355.91 359.56 359.33 359.56 352.49 356.14 355.91"/><polygon class="cls-6" points="352.72 359.33 356.14 355.91 352.72 352.49 352.72 359.33"/><polygon class="cls-6" points="345.88 359.33 352.72 359.33 349.3 355.91 345.88 359.33"/><polygon class="cls-6" points="349.3 355.91 352.72 352.49 345.88 352.49 349.3 355.91"/><polygon class="cls-6" points="349.3 362.75 352.72 366.16 352.72 359.33 349.3 362.75"/><polygon class="cls-6" points="345.88 366.16 349.3 362.75 345.88 359.33 345.88 366.16"/><polygon class="cls-6" points="339.05 366.16 345.88 366.16 342.47 362.75 339.05 366.16"/><polygon class="cls-6" points="342.47 362.75 345.88 359.33 339.05 359.33 342.47 362.75"/><polygon class="cls-6" points="280.94 308.05 284.35 311.47 284.35 304.63 280.94 308.05"/><polygon class="cls-6" points="277.52 304.63 277.52 311.47 280.94 308.05 277.52 304.63"/><polygon class="cls-6" points="274.1 308.05 270.68 311.47 277.52 311.47 274.1 308.05"/><polygon class="cls-6" points="270.68 304.63 274.1 308.05 277.52 304.63 270.68 304.63"/><polygon class="cls-6" points="274.1 314.89 277.52 318.31 277.52 311.47 274.1 314.89"/><polygon class="cls-6" points="270.68 311.47 270.68 318.31 274.1 314.89 270.68 311.47"/><polygon class="cls-6" points="263.84 311.47 267.26 314.89 270.68 311.47 263.84 311.47"/><polygon class="cls-6" points="274.1 301.21 277.52 304.63 277.52 297.8 274.1 301.21"/><polygon class="cls-6" points="270.68 297.8 270.68 304.63 274.1 301.21 270.68 297.8"/><polygon class="cls-6" points="267.26 301.21 263.84 304.63 270.68 304.63 267.26 301.21"/><polygon class="cls-6" points="263.84 297.8 267.26 301.21 270.68 297.8 263.84 297.8"/><polygon class="cls-6" points="267.26 308.05 270.68 311.47 270.68 304.63 267.26 308.05"/><polygon class="cls-6" points="263.84 304.63 263.84 311.47 267.26 308.05 263.84 304.63"/><polygon class="cls-6" points="257.01 304.63 260.43 308.05 263.84 304.63 257.01 304.63"/><polygon class="cls-6" points="294.61 321.73 298.03 325.14 298.03 318.31 294.61 321.73"/><polygon class="cls-6" points="291.19 318.31 291.19 325.14 294.61 321.73 291.19 318.31"/><polygon class="cls-6" points="287.77 321.73 284.35 325.14 291.19 325.14 287.77 321.73"/><polygon class="cls-6" points="284.35 318.31 287.77 321.73 291.19 318.31 284.35 318.31"/><polygon class="cls-6" points="287.77 328.56 291.19 331.98 291.19 325.14 287.77 328.56"/><polygon class="cls-6" points="284.35 325.14 284.35 331.98 287.77 328.56 284.35 325.14"/><polygon class="cls-6" points="277.52 325.14 280.94 328.56 284.35 325.14 277.52 325.14"/><polygon class="cls-6" points="287.77 314.89 291.19 318.31 291.19 311.47 287.77 314.89"/><polygon class="cls-6" points="284.35 311.47 284.35 318.31 287.77 314.89 284.35 311.47"/><polygon class="cls-6" points="280.94 314.89 277.52 318.31 284.35 318.31 280.94 314.89"/><polygon class="cls-6" points="277.52 311.47 280.94 314.89 284.35 311.47 277.52 311.47"/><polygon class="cls-6" points="280.94 321.73 284.35 325.14 284.35 318.31 280.94 321.73"/><polygon class="cls-6" points="277.52 318.31 277.52 325.14 280.94 321.73 277.52 318.31"/><polygon class="cls-6" points="270.68 318.31 274.1 321.73 277.52 318.31 270.68 318.31"/><polygon class="cls-6" points="308.28 335.4 311.7 338.82 311.7 331.98 308.28 335.4"/><polygon class="cls-6" points="304.86 331.98 304.86 338.82 308.28 335.4 304.86 331.98"/><polygon class="cls-6" points="301.44 335.4 298.03 338.82 304.86 338.82 301.44 335.4"/><polygon class="cls-6" points="298.03 331.98 301.44 335.4 304.86 331.98 298.03 331.98"/><polygon class="cls-6" points="301.44 342.24 304.86 345.65 304.86 338.82 301.44 342.24"/><polygon class="cls-6" points="298.03 338.82 298.03 345.65 301.44 342.24 298.03 338.82"/><polygon class="cls-6" points="291.19 338.82 294.61 342.24 298.03 338.82 291.19 338.82"/><polygon class="cls-6" points="301.44 328.56 304.86 331.98 304.86 325.14 301.44 328.56"/><polygon class="cls-6" points="298.03 325.14 298.03 331.98 301.44 328.56 298.03 325.14"/><polygon class="cls-6" points="294.61 328.56 291.19 331.98 298.03 331.98 294.61 328.56"/><polygon class="cls-6" points="291.19 325.14 294.61 328.56 298.03 325.14 291.19 325.14"/><polygon class="cls-6" points="294.61 335.4 298.03 338.82 298.03 331.98 294.61 335.4"/><polygon class="cls-6" points="291.19 331.98 291.19 338.82 294.61 335.4 291.19 331.98"/><polygon class="cls-6" points="284.35 331.98 287.77 335.4 291.19 331.98 284.35 331.98"/><polygon class="cls-6" points="294.61 294.38 298.03 297.8 298.03 290.96 294.61 294.38"/><polygon class="cls-6" points="291.19 290.96 291.19 297.8 294.61 294.38 291.19 290.96"/><polygon class="cls-6" points="287.77 294.38 284.35 297.8 291.19 297.8 287.77 294.38"/><polygon class="cls-6" points="284.35 290.96 287.77 294.38 291.19 290.96 284.35 290.96"/><polygon class="cls-6" points="287.77 301.21 291.19 304.63 291.19 297.8 287.77 301.21"/><polygon class="cls-6" points="284.35 297.8 284.35 304.63 287.77 301.21 284.35 297.8"/><polygon class="cls-6" points="280.94 301.21 277.52 304.63 284.35 304.63 280.94 301.21"/><polygon class="cls-6" points="277.52 297.8 280.94 301.21 284.35 297.8 277.52 297.8"/><polygon class="cls-6" points="287.77 287.54 291.19 290.96 291.19 284.12 287.77 287.54"/><polygon class="cls-6" points="284.35 284.12 284.35 290.96 287.77 287.54 284.35 284.12"/><polygon class="cls-6" points="280.94 287.54 277.52 290.96 284.35 290.96 280.94 287.54"/><polygon class="cls-6" points="277.52 284.12 280.94 287.54 284.35 284.12 277.52 284.12"/><polygon class="cls-6" points="280.94 294.38 284.35 297.8 284.35 290.96 280.94 294.38"/><polygon class="cls-6" points="277.52 290.96 277.52 297.8 280.94 294.38 277.52 290.96"/><polygon class="cls-6" points="274.1 294.38 270.68 297.8 277.52 297.8 274.1 294.38"/><polygon class="cls-6" points="270.68 290.96 274.1 294.38 277.52 290.96 270.68 290.96"/><polygon class="cls-6" points="308.28 308.05 311.7 311.47 311.7 304.63 308.28 308.05"/><polygon class="cls-6" points="304.86 304.63 304.86 311.47 308.28 308.05 304.86 304.63"/><polygon class="cls-6" points="301.44 308.05 298.03 311.47 304.86 311.47 301.44 308.05"/><polygon class="cls-6" points="298.03 304.63 301.44 308.05 304.86 304.63 298.03 304.63"/><polygon class="cls-6" points="301.44 314.89 304.86 318.31 304.86 311.47 301.44 314.89"/><polygon class="cls-6" points="298.03 311.47 298.03 318.31 301.44 314.89 298.03 311.47"/><polygon class="cls-6" points="294.61 314.89 291.19 318.31 298.03 318.31 294.61 314.89"/><polygon class="cls-6" points="291.19 311.47 294.61 314.89 298.03 311.47 291.19 311.47"/><polygon class="cls-6" points="301.44 301.21 304.86 304.63 304.86 297.8 301.44 301.21"/><polygon class="cls-6" points="298.03 297.8 298.03 304.63 301.44 301.21 298.03 297.8"/><polygon class="cls-6" points="294.61 301.21 291.19 304.63 298.03 304.63 294.61 301.21"/><polygon class="cls-6" points="291.19 297.8 294.61 301.21 298.03 297.8 291.19 297.8"/><polygon class="cls-6" points="294.61 308.05 298.03 311.47 298.03 304.63 294.61 308.05"/><polygon class="cls-6" points="291.19 304.63 291.19 311.47 294.61 308.05 291.19 304.63"/><polygon class="cls-6" points="287.77 308.05 284.35 311.47 291.19 311.47 287.77 308.05"/><polygon class="cls-6" points="284.35 304.63 287.77 308.05 291.19 304.63 284.35 304.63"/><polygon class="cls-6" points="321.96 321.73 325.37 325.14 325.37 318.31 321.96 321.73"/><polygon class="cls-6" points="318.54 318.31 318.54 325.14 321.96 321.73 318.54 318.31"/><polygon class="cls-6" points="315.12 321.73 311.7 325.14 318.54 325.14 315.12 321.73"/><polygon class="cls-6" points="311.7 318.31 315.12 321.73 318.54 318.31 311.7 318.31"/><polygon class="cls-6" points="315.12 328.56 318.54 331.98 318.54 325.14 315.12 328.56"/><polygon class="cls-6" points="311.7 325.14 311.7 331.98 315.12 328.56 311.7 325.14"/><polygon class="cls-6" points="308.28 328.56 304.86 331.98 311.7 331.98 308.28 328.56"/><polygon class="cls-6" points="304.86 325.14 308.28 328.56 311.7 325.14 304.86 325.14"/><polygon class="cls-6" points="315.12 314.89 318.54 318.31 318.54 311.47 315.12 314.89"/><polygon class="cls-6" points="311.7 311.47 311.7 318.31 315.12 314.89 311.7 311.47"/><polygon class="cls-6" points="308.28 314.89 304.86 318.31 311.7 318.31 308.28 314.89"/><polygon class="cls-6" points="304.86 311.47 308.28 314.89 311.7 311.47 304.86 311.47"/><polygon class="cls-6" points="308.28 321.73 311.7 325.14 311.7 318.31 308.28 321.73"/><polygon class="cls-6" points="304.86 318.31 304.86 325.14 308.28 321.73 304.86 318.31"/><polygon class="cls-6" points="301.44 321.73 298.03 325.14 304.86 325.14 301.44 321.73"/><polygon class="cls-6" points="298.03 318.31 301.44 321.73 304.86 318.31 298.03 318.31"/><polygon class="cls-6" points="270.68 243.1 270.68 236.26 267.26 239.68 270.68 243.1"/><polygon class="cls-6" points="267.26 239.68 263.84 236.26 263.84 243.1 267.26 239.68"/><polygon class="cls-6" points="263.84 243.1 260.43 239.68 257.01 243.1 263.84 243.1"/><polygon class="cls-6" points="260.43 239.68 263.84 236.26 257.01 236.26 260.43 239.68"/><polygon class="cls-6" points="263.84 249.94 263.84 243.1 260.43 246.52 263.84 249.94"/><polygon class="cls-6" points="260.43 246.52 257.01 243.1 257.01 249.94 260.43 246.52"/><polygon class="cls-6" points="253.59 246.52 250.17 249.94 257.01 249.94 253.59 246.52"/><polygon class="cls-6" points="253.59 246.52 257.01 243.1 250.17 243.1 253.59 246.52"/><polygon class="cls-6" points="263.84 236.26 263.84 229.43 260.43 232.85 263.84 236.26"/><polygon class="cls-6" points="260.43 232.85 257.01 229.43 257.01 236.26 260.43 232.85"/><polygon class="cls-6" points="257.01 236.26 253.59 232.85 250.17 236.26 257.01 236.26"/><polygon class="cls-6" points="253.59 232.85 257.01 229.43 250.17 229.43 253.59 232.85"/><polygon class="cls-6" points="257.01 243.1 257.01 236.26 253.59 239.68 257.01 243.1"/><polygon class="cls-6" points="253.59 239.68 250.17 236.26 250.17 243.1 253.59 239.68"/><polygon class="cls-6" points="246.75 239.68 243.33 243.1 250.17 243.1 246.75 239.68"/><polygon class="cls-6" points="246.75 239.68 250.17 236.26 243.33 236.26 246.75 239.68"/><polygon class="cls-6" points="284.35 256.78 284.35 249.94 280.94 253.36 284.35 256.78"/><polygon class="cls-6" points="280.94 253.36 277.52 249.94 277.52 256.78 280.94 253.36"/><polygon class="cls-6" points="277.52 256.78 274.1 253.36 270.68 256.78 277.52 256.78"/><polygon class="cls-6" points="274.1 253.36 277.52 249.94 270.68 249.94 274.1 253.36"/><polygon class="cls-6" points="277.52 263.61 277.52 256.78 274.1 260.19 277.52 263.61"/><polygon class="cls-6" points="274.1 260.19 270.68 256.78 270.68 263.61 274.1 260.19"/><polygon class="cls-6" points="267.26 260.19 263.84 263.61 270.68 263.61 267.26 260.19"/><polygon class="cls-6" points="267.26 260.19 270.68 256.78 263.84 256.78 267.26 260.19"/><polygon class="cls-6" points="277.52 249.94 277.52 243.1 274.1 246.52 277.52 249.94"/><polygon class="cls-6" points="274.1 246.52 270.68 243.1 270.68 249.94 274.1 246.52"/><polygon class="cls-6" points="270.68 249.94 267.26 246.52 263.84 249.94 270.68 249.94"/><polygon class="cls-6" points="267.26 246.52 270.68 243.1 263.84 243.1 267.26 246.52"/><polygon class="cls-6" points="270.68 256.78 270.68 249.94 267.26 253.36 270.68 256.78"/><polygon class="cls-6" points="267.26 253.36 263.84 249.94 263.84 256.78 267.26 253.36"/><polygon class="cls-6" points="260.43 253.36 257.01 256.78 263.84 256.78 260.43 253.36"/><polygon class="cls-6" points="260.43 253.36 263.84 249.94 257.01 249.94 260.43 253.36"/><polygon class="cls-6" points="298.03 270.45 298.03 263.61 294.61 267.03 298.03 270.45"/><polygon class="cls-6" points="294.61 267.03 291.19 263.61 291.19 270.45 294.61 267.03"/><polygon class="cls-6" points="291.19 270.45 287.77 267.03 284.35 270.45 291.19 270.45"/><polygon class="cls-6" points="287.77 267.03 291.19 263.61 284.35 263.61 287.77 267.03"/><polygon class="cls-6" points="291.19 277.29 291.19 270.45 287.77 273.87 291.19 277.29"/><polygon class="cls-6" points="287.77 273.87 284.35 270.45 284.35 277.29 287.77 273.87"/><polygon class="cls-6" points="280.94 273.87 277.52 277.29 284.35 277.29 280.94 273.87"/><polygon class="cls-6" points="280.94 273.87 284.35 270.45 277.52 270.45 280.94 273.87"/><polygon class="cls-6" points="291.19 263.61 291.19 256.78 287.77 260.19 291.19 263.61"/><polygon class="cls-6" points="287.77 260.19 284.35 256.78 284.35 263.61 287.77 260.19"/><polygon class="cls-6" points="284.35 263.61 280.94 260.19 277.52 263.61 284.35 263.61"/><polygon class="cls-6" points="280.94 260.19 284.35 256.78 277.52 256.78 280.94 260.19"/><polygon class="cls-6" points="284.35 270.45 284.35 263.61 280.94 267.03 284.35 270.45"/><polygon class="cls-6" points="280.94 267.03 277.52 263.61 277.52 270.45 280.94 267.03"/><polygon class="cls-6" points="274.1 267.03 270.68 270.45 277.52 270.45 274.1 267.03"/><polygon class="cls-6" points="274.1 267.03 277.52 263.61 270.68 263.61 274.1 267.03"/><polygon class="cls-6" points="280.94 226.01 277.52 222.59 277.52 229.43 280.94 226.01"/><polygon class="cls-6" points="277.52 229.43 274.1 226.01 270.68 229.43 277.52 229.43"/><polygon class="cls-6" points="274.1 226.01 277.52 222.59 270.68 222.59 274.1 226.01"/><polygon class="cls-6" points="277.52 236.26 277.52 229.43 274.1 232.85 277.52 236.26"/><polygon class="cls-6" points="274.1 232.85 270.68 229.43 270.68 236.26 274.1 232.85"/><polygon class="cls-6" points="270.68 236.26 267.26 232.85 263.84 236.26 270.68 236.26"/><polygon class="cls-6" points="267.26 232.85 270.68 229.43 263.84 229.43 267.26 232.85"/><polygon class="cls-6" points="274.1 219.17 270.68 215.75 270.68 222.59 274.1 219.17"/><polygon class="cls-6" points="270.68 222.59 267.26 219.17 263.84 222.59 270.68 222.59"/><polygon class="cls-6" points="267.26 219.17 270.68 215.75 263.84 215.75 267.26 219.17"/><polygon class="cls-6" points="270.68 229.43 270.68 222.59 267.26 226.01 270.68 229.43"/><polygon class="cls-6" points="267.26 226.01 263.84 222.59 263.84 229.43 267.26 226.01"/><polygon class="cls-6" points="263.84 229.43 260.43 226.01 257.01 229.43 263.84 229.43"/><polygon class="cls-6" points="260.43 226.01 263.84 222.59 257.01 222.59 260.43 226.01"/><polygon class="cls-6" points="291.19 243.1 287.77 239.68 284.35 243.1 291.19 243.1"/><polygon class="cls-6" points="287.77 239.68 291.19 236.26 284.35 236.26 287.77 239.68"/><polygon class="cls-6" points="291.19 249.94 291.19 243.1 287.77 246.52 291.19 249.94"/><polygon class="cls-6" points="287.77 246.52 284.35 243.1 284.35 249.94 287.77 246.52"/><polygon class="cls-6" points="284.35 249.94 280.94 246.52 277.52 249.94 284.35 249.94"/><polygon class="cls-6" points="280.94 246.52 284.35 243.1 277.52 243.1 280.94 246.52"/><polygon class="cls-6" points="284.35 236.26 280.94 232.85 277.52 236.26 284.35 236.26"/><polygon class="cls-6" points="280.94 232.85 284.35 229.43 277.52 229.43 280.94 232.85"/><polygon class="cls-6" points="284.35 243.1 284.35 236.26 280.94 239.68 284.35 243.1"/><polygon class="cls-6" points="280.94 239.68 277.52 236.26 277.52 243.1 280.94 239.68"/><polygon class="cls-6" points="277.52 243.1 274.1 239.68 270.68 243.1 277.52 243.1"/><polygon class="cls-6" points="274.1 239.68 277.52 236.26 270.68 236.26 274.1 239.68"/><polygon class="cls-6" points="304.86 256.78 301.44 253.36 298.03 256.78 304.86 256.78"/><polygon class="cls-6" points="304.86 263.61 304.86 256.78 301.44 260.19 304.86 263.61"/><polygon class="cls-6" points="301.44 260.19 298.03 256.78 298.03 263.61 301.44 260.19"/><polygon class="cls-6" points="298.03 263.61 294.61 260.19 291.19 263.61 298.03 263.61"/><polygon class="cls-6" points="294.61 260.19 298.03 256.78 291.19 256.78 294.61 260.19"/><polygon class="cls-6" points="298.03 249.94 294.61 246.52 291.19 249.94 298.03 249.94"/><polygon class="cls-6" points="294.61 246.52 298.03 243.1 291.19 243.1 294.61 246.52"/><polygon class="cls-6" points="298.03 256.78 298.03 249.94 294.61 253.36 298.03 256.78"/><polygon class="cls-6" points="294.61 253.36 291.19 249.94 291.19 256.78 294.61 253.36"/><polygon class="cls-6" points="291.19 256.78 287.77 253.36 284.35 256.78 291.19 256.78"/><polygon class="cls-6" points="287.77 253.36 291.19 249.94 284.35 249.94 287.77 253.36"/><polygon class="cls-6" points="229.66 195.25 226.24 198.66 229.66 202.08 229.66 195.25"/><polygon class="cls-6" points="226.24 198.66 222.82 195.25 222.82 202.08 226.24 198.66"/><polygon class="cls-6" points="219.4 198.66 215.99 202.08 222.82 202.08 219.4 198.66"/><polygon class="cls-6" points="222.82 195.25 215.99 195.25 219.4 198.66 222.82 195.25"/><polygon class="cls-6" points="222.82 202.08 219.4 205.5 222.82 208.92 222.82 202.08"/><polygon class="cls-6" points="219.4 205.5 215.99 202.08 215.99 208.92 219.4 205.5"/><polygon class="cls-6" points="212.57 205.5 209.15 208.92 215.99 208.92 212.57 205.5"/><polygon class="cls-6" points="215.99 202.08 209.15 202.08 212.57 205.5 215.99 202.08"/><polygon class="cls-6" points="222.82 188.41 219.4 191.83 222.82 195.25 222.82 188.41"/><polygon class="cls-6" points="219.4 191.83 215.99 188.41 215.99 195.25 219.4 191.83"/><polygon class="cls-6" points="212.57 191.83 209.15 195.25 215.99 195.25 212.57 191.83"/><polygon class="cls-6" points="209.15 188.41 212.57 191.83 215.99 188.41 209.15 188.41"/><polygon class="cls-6" points="215.99 195.25 212.57 198.66 215.99 202.08 215.99 195.25"/><polygon class="cls-6" points="212.57 198.66 209.15 195.25 209.15 202.08 212.57 198.66"/><polygon class="cls-6" points="205.73 198.66 202.31 202.08 209.15 202.08 205.73 198.66"/><polygon class="cls-6" points="202.31 195.25 205.73 198.66 209.15 195.25 202.31 195.25"/><polygon class="cls-6" points="243.33 215.75 243.33 208.92 239.91 212.34 243.33 215.75"/><polygon class="cls-6" points="239.91 212.34 236.5 208.92 236.5 215.75 239.91 212.34"/><polygon class="cls-6" points="236.5 215.75 233.08 212.34 229.66 215.75 236.5 215.75"/><polygon class="cls-6" points="233.08 212.34 236.5 208.92 229.66 208.92 233.08 212.34"/><polygon class="cls-6" points="236.5 222.59 236.5 215.75 233.08 219.17 236.5 222.59"/><polygon class="cls-6" points="233.08 219.17 229.66 215.75 229.66 222.59 233.08 219.17"/><polygon class="cls-6" points="226.24 219.17 222.82 222.59 229.66 222.59 226.24 219.17"/><polygon class="cls-6" points="229.66 215.75 222.82 215.75 226.24 219.17 229.66 215.75"/><polygon class="cls-6" points="236.5 208.92 236.5 202.08 233.08 205.5 236.5 208.92"/><polygon class="cls-6" points="233.08 205.5 229.66 202.08 229.66 208.92 233.08 205.5"/><polygon class="cls-6" points="226.24 205.5 222.82 208.92 229.66 208.92 226.24 205.5"/><polygon class="cls-6" points="229.66 202.08 222.82 202.08 226.24 205.5 229.66 202.08"/><polygon class="cls-6" points="229.66 208.92 226.24 212.34 229.66 215.75 229.66 208.92"/><polygon class="cls-6" points="226.24 212.34 222.82 208.92 222.82 215.75 226.24 212.34"/><polygon class="cls-6" points="219.4 212.34 215.99 215.75 222.82 215.75 219.4 212.34"/><polygon class="cls-6" points="222.82 208.92 215.99 208.92 219.4 212.34 222.82 208.92"/><polygon class="cls-6" points="257.01 229.43 257.01 222.59 253.59 226.01 257.01 229.43"/><polygon class="cls-6" points="253.59 226.01 250.17 222.59 250.17 229.43 253.59 226.01"/><polygon class="cls-6" points="250.17 229.43 246.75 226.01 243.33 229.43 250.17 229.43"/><polygon class="cls-6" points="246.75 226.01 250.17 222.59 243.33 222.59 246.75 226.01"/><polygon class="cls-6" points="250.17 236.26 250.17 229.43 246.75 232.85 250.17 236.26"/><polygon class="cls-6" points="246.75 232.85 243.33 229.43 243.33 236.26 246.75 232.85"/><polygon class="cls-6" points="239.91 232.85 236.5 236.26 243.33 236.26 239.91 232.85"/><polygon class="cls-6" points="239.91 232.85 243.33 229.43 236.5 229.43 239.91 232.85"/><polygon class="cls-6" points="250.17 222.59 250.17 215.75 246.75 219.17 250.17 222.59"/><polygon class="cls-6" points="246.75 219.17 243.33 215.75 243.33 222.59 246.75 219.17"/><polygon class="cls-6" points="243.33 222.59 239.91 219.17 236.5 222.59 243.33 222.59"/><polygon class="cls-6" points="239.91 219.17 243.33 215.75 236.5 215.75 239.91 219.17"/><polygon class="cls-6" points="243.33 229.43 243.33 222.59 239.91 226.01 243.33 229.43"/><polygon class="cls-6" points="239.91 226.01 236.5 222.59 236.5 229.43 239.91 226.01"/><polygon class="cls-6" points="233.08 226.01 229.66 229.43 236.5 229.43 233.08 226.01"/><polygon class="cls-6" points="233.08 226.01 236.5 222.59 229.66 222.59 233.08 226.01"/><polygon class="cls-6" points="239.91 184.99 236.5 181.57 236.5 188.41 239.91 184.99"/><polygon class="cls-6" points="236.5 188.41 233.08 184.99 229.66 188.41 236.5 188.41"/><polygon class="cls-6" points="233.08 184.99 236.5 181.57 229.66 181.57 233.08 184.99"/><polygon class="cls-6" points="236.5 195.25 236.5 188.41 233.08 191.83 236.5 195.25"/><polygon class="cls-6" points="233.08 191.83 229.66 188.41 229.66 195.25 233.08 191.83"/><polygon class="cls-6" points="226.24 191.83 222.82 195.25 229.66 195.25 226.24 191.83"/><polygon class="cls-6" points="229.66 188.41 222.82 188.41 226.24 191.83 229.66 188.41"/><polygon class="cls-6" points="233.08 178.15 229.66 174.74 229.66 181.57 233.08 178.15"/><polygon class="cls-6" points="226.24 178.15 222.82 181.57 229.66 181.57 226.24 178.15"/><polygon class="cls-6" points="222.82 174.74 226.24 178.15 229.66 174.74 222.82 174.74"/><polygon class="cls-6" points="229.66 181.57 226.24 184.99 229.66 188.41 229.66 181.57"/><polygon class="cls-6" points="226.24 184.99 222.82 181.57 222.82 188.41 226.24 184.99"/><polygon class="cls-6" points="219.4 184.99 215.99 188.41 222.82 188.41 219.4 184.99"/><polygon class="cls-6" points="215.99 181.57 219.4 184.99 222.82 181.57 215.99 181.57"/><polygon class="cls-6" points="253.59 198.66 250.17 195.25 250.17 202.08 253.59 198.66"/><polygon class="cls-6" points="250.17 202.08 246.75 198.66 243.33 202.08 250.17 202.08"/><polygon class="cls-6" points="246.75 198.66 250.17 195.25 243.33 195.25 246.75 198.66"/><polygon class="cls-6" points="250.17 208.92 250.17 202.08 246.75 205.5 250.17 208.92"/><polygon class="cls-6" points="246.75 205.5 243.33 202.08 243.33 208.92 246.75 205.5"/><polygon class="cls-6" points="243.33 208.92 239.91 205.5 236.5 208.92 243.33 208.92"/><polygon class="cls-6" points="239.91 205.5 243.33 202.08 236.5 202.08 239.91 205.5"/><polygon class="cls-6" points="246.75 191.83 243.33 188.41 243.33 195.25 246.75 191.83"/><polygon class="cls-6" points="243.33 195.25 239.91 191.83 236.5 195.25 243.33 195.25"/><polygon class="cls-6" points="239.91 191.83 243.33 188.41 236.5 188.41 239.91 191.83"/><polygon class="cls-6" points="243.33 202.08 243.33 195.25 239.91 198.66 243.33 202.08"/><polygon class="cls-6" points="239.91 198.66 236.5 195.25 236.5 202.08 239.91 198.66"/><polygon class="cls-6" points="236.5 202.08 233.08 198.66 229.66 202.08 236.5 202.08"/><polygon class="cls-6" points="233.08 198.66 236.5 195.25 229.66 195.25 233.08 198.66"/><polygon class="cls-6" points="267.26 212.34 263.84 208.92 263.84 215.75 267.26 212.34"/><polygon class="cls-6" points="263.84 215.75 260.43 212.34 257.01 215.75 263.84 215.75"/><polygon class="cls-6" points="260.43 212.34 263.84 208.92 257.01 208.92 260.43 212.34"/><polygon class="cls-6" points="263.84 222.59 263.84 215.75 260.43 219.17 263.84 222.59"/><polygon class="cls-6" points="260.43 219.17 257.01 215.75 257.01 222.59 260.43 219.17"/><polygon class="cls-6" points="257.01 222.59 253.59 219.17 250.17 222.59 257.01 222.59"/><polygon class="cls-6" points="253.59 219.17 257.01 215.75 250.17 215.75 253.59 219.17"/><polygon class="cls-6" points="260.43 205.5 257.01 202.08 257.01 208.92 260.43 205.5"/><polygon class="cls-6" points="257.01 208.92 253.59 205.5 250.17 208.92 257.01 208.92"/><polygon class="cls-6" points="253.59 205.5 257.01 202.08 250.17 202.08 253.59 205.5"/><polygon class="cls-6" points="257.01 215.75 257.01 208.92 253.59 212.34 257.01 215.75"/><polygon class="cls-6" points="253.59 212.34 250.17 208.92 250.17 215.75 253.59 212.34"/><polygon class="cls-6" points="250.17 215.75 246.75 212.34 243.33 215.75 250.17 215.75"/><polygon class="cls-6" points="246.75 212.34 250.17 208.92 243.33 208.92 246.75 212.34"/><polygon class="cls-6" points="239.91 267.03 243.33 270.45 243.33 263.61 239.91 267.03"/><polygon class="cls-6" points="236.5 263.61 236.5 270.45 239.91 267.03 236.5 263.61"/><polygon class="cls-6" points="233.08 267.03 229.66 270.45 236.5 270.45 233.08 267.03"/><polygon class="cls-6" points="229.66 263.61 233.08 267.03 236.5 263.61 229.66 263.61"/><polygon class="cls-6" points="233.08 273.87 236.5 277.29 236.5 270.45 233.08 273.87"/><polygon class="cls-6" points="229.66 270.45 229.66 277.29 233.08 273.87 229.66 270.45"/><polygon class="cls-6" points="222.82 277.29 229.66 277.29 226.24 273.87 222.82 277.29"/><polygon class="cls-6" points="222.82 270.45 226.24 273.87 229.66 270.45 222.82 270.45"/><polygon class="cls-6" points="233.08 260.19 236.5 263.61 236.5 256.78 233.08 260.19"/><polygon class="cls-6" points="229.66 256.78 229.66 263.61 233.08 260.19 229.66 256.78"/><polygon class="cls-6" points="226.24 260.19 222.82 263.61 229.66 263.61 226.24 260.19"/><polygon class="cls-6" points="222.82 256.78 226.24 260.19 229.66 256.78 222.82 256.78"/><polygon class="cls-6" points="226.24 267.03 229.66 270.45 229.66 263.61 226.24 267.03"/><polygon class="cls-6" points="222.82 263.61 222.82 270.45 226.24 267.03 222.82 263.61"/><polygon class="cls-6" points="215.99 270.45 222.82 270.45 219.4 267.03 215.99 270.45"/><polygon class="cls-6" points="215.99 263.61 219.4 267.03 222.82 263.61 215.99 263.61"/><polygon class="cls-6" points="253.59 280.7 257.01 284.12 257.01 277.29 253.59 280.7"/><polygon class="cls-6" points="250.17 277.29 250.17 284.12 253.59 280.7 250.17 277.29"/><polygon class="cls-6" points="246.75 280.7 243.33 284.12 250.17 284.12 246.75 280.7"/><polygon class="cls-6" points="243.33 277.29 246.75 280.7 250.17 277.29 243.33 277.29"/><polygon class="cls-6" points="246.75 287.54 250.17 290.96 250.17 284.12 246.75 287.54"/><polygon class="cls-6" points="243.33 284.12 243.33 290.96 246.75 287.54 243.33 284.12"/><polygon class="cls-6" points="236.5 284.12 239.91 287.54 243.33 284.12 236.5 284.12"/><polygon class="cls-6" points="246.75 273.87 250.17 277.29 250.17 270.45 246.75 273.87"/><polygon class="cls-6" points="243.33 270.45 243.33 277.29 246.75 273.87 243.33 270.45"/><polygon class="cls-6" points="239.91 273.87 236.5 277.29 243.33 277.29 239.91 273.87"/><polygon class="cls-6" points="236.5 270.45 239.91 273.87 243.33 270.45 236.5 270.45"/><polygon class="cls-6" points="239.91 280.7 243.33 284.12 243.33 277.29 239.91 280.7"/><polygon class="cls-6" points="236.5 277.29 236.5 284.12 239.91 280.7 236.5 277.29"/><polygon class="cls-6" points="229.66 277.29 233.08 280.7 236.5 277.29 229.66 277.29"/><polygon class="cls-6" points="267.26 294.38 270.68 297.8 270.68 290.96 267.26 294.38"/><polygon class="cls-6" points="263.84 290.96 263.84 297.8 267.26 294.38 263.84 290.96"/><polygon class="cls-6" points="260.43 294.38 257.01 297.8 263.84 297.8 260.43 294.38"/><polygon class="cls-6" points="257.01 290.96 260.43 294.38 263.84 290.96 257.01 290.96"/><polygon class="cls-6" points="260.43 301.21 263.84 304.63 263.84 297.8 260.43 301.21"/><polygon class="cls-6" points="257.01 297.8 257.01 304.63 260.43 301.21 257.01 297.8"/><polygon class="cls-6" points="250.17 297.8 253.59 301.21 257.01 297.8 250.17 297.8"/><polygon class="cls-6" points="260.43 287.54 263.84 290.96 263.84 284.12 260.43 287.54"/><polygon class="cls-6" points="257.01 284.12 257.01 290.96 260.43 287.54 257.01 284.12"/><polygon class="cls-6" points="253.59 287.54 250.17 290.96 257.01 290.96 253.59 287.54"/><polygon class="cls-6" points="250.17 284.12 253.59 287.54 257.01 284.12 250.17 284.12"/><polygon class="cls-6" points="253.59 294.38 257.01 297.8 257.01 290.96 253.59 294.38"/><polygon class="cls-6" points="250.17 290.96 250.17 297.8 253.59 294.38 250.17 290.96"/><polygon class="cls-6" points="243.33 290.96 246.75 294.38 250.17 290.96 243.33 290.96"/><polygon class="cls-6" points="253.59 253.36 257.01 256.78 257.01 249.94 253.59 253.36"/><polygon class="cls-6" points="250.17 249.94 250.17 256.78 253.59 253.36 250.17 249.94"/><polygon class="cls-6" points="246.75 253.36 243.33 256.78 250.17 256.78 246.75 253.36"/><polygon class="cls-6" points="243.33 249.94 246.75 253.36 250.17 249.94 243.33 249.94"/><polygon class="cls-6" points="246.75 260.19 250.17 263.61 250.17 256.78 246.75 260.19"/><polygon class="cls-6" points="243.33 256.78 243.33 263.61 246.75 260.19 243.33 256.78"/><polygon class="cls-6" points="239.91 260.19 236.5 263.61 243.33 263.61 239.91 260.19"/><polygon class="cls-6" points="236.5 256.78 239.91 260.19 243.33 256.78 236.5 256.78"/><polygon class="cls-6" points="246.75 246.52 250.17 249.94 250.17 243.1 246.75 246.52"/><polygon class="cls-6" points="243.33 243.1 243.33 249.94 246.75 246.52 243.33 243.1"/><polygon class="cls-6" points="239.91 246.52 236.5 249.94 243.33 249.94 239.91 246.52"/><polygon class="cls-6" points="236.5 243.1 239.91 246.52 243.33 243.1 236.5 243.1"/><polygon class="cls-6" points="239.91 253.36 243.33 256.78 243.33 249.94 239.91 253.36"/><polygon class="cls-6" points="236.5 249.94 236.5 256.78 239.91 253.36 236.5 249.94"/><polygon class="cls-6" points="233.08 253.36 229.66 256.78 236.5 256.78 233.08 253.36"/><polygon class="cls-6" points="229.66 249.94 233.08 253.36 236.5 249.94 229.66 249.94"/><polygon class="cls-6" points="267.26 267.03 270.68 270.45 270.68 263.61 267.26 267.03"/><polygon class="cls-6" points="263.84 263.61 263.84 270.45 267.26 267.03 263.84 263.61"/><polygon class="cls-6" points="260.43 267.03 257.01 270.45 263.84 270.45 260.43 267.03"/><polygon class="cls-6" points="257.01 263.61 260.43 267.03 263.84 263.61 257.01 263.61"/><polygon class="cls-6" points="260.43 273.87 263.84 277.29 263.84 270.45 260.43 273.87"/><polygon class="cls-6" points="257.01 270.45 257.01 277.29 260.43 273.87 257.01 270.45"/><polygon class="cls-6" points="253.59 273.87 250.17 277.29 257.01 277.29 253.59 273.87"/><polygon class="cls-6" points="250.17 270.45 253.59 273.87 257.01 270.45 250.17 270.45"/><polygon class="cls-6" points="260.43 260.19 263.84 263.61 263.84 256.78 260.43 260.19"/><polygon class="cls-6" points="257.01 256.78 257.01 263.61 260.43 260.19 257.01 256.78"/><polygon class="cls-6" points="253.59 260.19 250.17 263.61 257.01 263.61 253.59 260.19"/><polygon class="cls-6" points="250.17 256.78 253.59 260.19 257.01 256.78 250.17 256.78"/><polygon class="cls-6" points="253.59 267.03 257.01 270.45 257.01 263.61 253.59 267.03"/><polygon class="cls-6" points="250.17 263.61 250.17 270.45 253.59 267.03 250.17 263.61"/><polygon class="cls-6" points="246.75 267.03 243.33 270.45 250.17 270.45 246.75 267.03"/><polygon class="cls-6" points="243.33 263.61 246.75 267.03 250.17 263.61 243.33 263.61"/><polygon class="cls-6" points="280.94 280.7 284.35 284.12 284.35 277.29 280.94 280.7"/><polygon class="cls-6" points="277.52 277.29 277.52 284.12 280.94 280.7 277.52 277.29"/><polygon class="cls-6" points="274.1 280.7 270.68 284.12 277.52 284.12 274.1 280.7"/><polygon class="cls-6" points="270.68 277.29 274.1 280.7 277.52 277.29 270.68 277.29"/><polygon class="cls-6" points="274.1 287.54 277.52 290.96 277.52 284.12 274.1 287.54"/><polygon class="cls-6" points="270.68 284.12 270.68 290.96 274.1 287.54 270.68 284.12"/><polygon class="cls-6" points="267.26 287.54 263.84 290.96 270.68 290.96 267.26 287.54"/><polygon class="cls-6" points="263.84 284.12 267.26 287.54 270.68 284.12 263.84 284.12"/><polygon class="cls-6" points="274.1 273.87 277.52 277.29 277.52 270.45 274.1 273.87"/><polygon class="cls-6" points="270.68 270.45 270.68 277.29 274.1 273.87 270.68 270.45"/><polygon class="cls-6" points="267.26 273.87 263.84 277.29 270.68 277.29 267.26 273.87"/><polygon class="cls-6" points="263.84 270.45 267.26 273.87 270.68 270.45 263.84 270.45"/><polygon class="cls-6" points="267.26 280.7 270.68 284.12 270.68 277.29 267.26 280.7"/><polygon class="cls-6" points="263.84 277.29 263.84 284.12 267.26 280.7 263.84 277.29"/><polygon class="cls-6" points="260.43 280.7 257.01 284.12 263.84 284.12 260.43 280.7"/><polygon class="cls-6" points="257.01 277.29 260.43 280.7 263.84 277.29 257.01 277.29"/><polygon class="cls-6" points="198.89 226.01 202.31 229.43 202.31 222.59 198.89 226.01"/><polygon class="cls-6" points="195.48 222.59 195.48 229.43 198.89 226.01 195.48 222.59"/><polygon class="cls-6" points="192.06 226.01 188.64 229.43 195.48 229.43 192.06 226.01"/><polygon class="cls-6" points="195.48 222.59 188.64 222.59 192.06 226.01 195.48 222.59"/><polygon class="cls-6" points="192.06 232.85 195.48 236.26 195.48 229.43 192.06 232.85"/><polygon class="cls-6" points="188.64 229.43 188.64 236.26 192.06 232.85 188.64 229.43"/><polygon class="cls-6" points="181.8 236.26 188.64 236.26 185.22 232.85 181.8 236.26"/><polygon class="cls-6" points="181.8 229.43 185.22 232.85 188.64 229.43 181.8 229.43"/><polygon class="cls-6" points="195.48 215.75 192.06 219.17 195.48 222.59 195.48 215.75"/><polygon class="cls-6" points="192.06 219.17 188.64 215.75 188.64 222.59 192.06 219.17"/><polygon class="cls-6" points="185.22 219.17 181.8 222.59 188.64 222.59 185.22 219.17"/><polygon class="cls-6" points="181.8 215.75 185.22 219.17 188.64 215.75 181.8 215.75"/><polygon class="cls-6" points="185.22 226.01 188.64 229.43 188.64 222.59 185.22 226.01"/><polygon class="cls-6" points="181.8 222.59 181.8 229.43 185.22 226.01 181.8 222.59"/><polygon class="cls-6" points="174.97 229.43 181.8 229.43 178.38 226.01 174.97 229.43"/><polygon class="cls-6" points="174.97 222.59 178.38 226.01 181.8 222.59 174.97 222.59"/><polygon class="cls-6" points="212.57 239.68 215.99 243.1 215.99 236.26 212.57 239.68"/><polygon class="cls-6" points="209.15 236.26 209.15 243.1 212.57 239.68 209.15 236.26"/><polygon class="cls-6" points="205.73 239.68 202.31 243.1 209.15 243.1 205.73 239.68"/><polygon class="cls-6" points="202.31 236.26 205.73 239.68 209.15 236.26 202.31 236.26"/><polygon class="cls-6" points="205.73 246.52 209.15 249.94 209.15 243.1 205.73 246.52"/><polygon class="cls-6" points="202.31 243.1 202.31 249.94 205.73 246.52 202.31 243.1"/><polygon class="cls-6" points="195.48 249.94 202.31 249.94 198.89 246.52 195.48 249.94"/><polygon class="cls-6" points="195.48 243.1 198.89 246.52 202.31 243.1 195.48 243.1"/><polygon class="cls-6" points="205.73 232.85 209.15 236.26 209.15 229.43 205.73 232.85"/><polygon class="cls-6" points="202.31 229.43 202.31 236.26 205.73 232.85 202.31 229.43"/><polygon class="cls-6" points="198.89 232.85 195.48 236.26 202.31 236.26 198.89 232.85"/><polygon class="cls-6" points="195.48 229.43 198.89 232.85 202.31 229.43 195.48 229.43"/><polygon class="cls-6" points="198.89 239.68 202.31 243.1 202.31 236.26 198.89 239.68"/><polygon class="cls-6" points="195.48 236.26 195.48 243.1 198.89 239.68 195.48 236.26"/><polygon class="cls-6" points="188.64 243.1 195.48 243.1 192.06 239.68 188.64 243.1"/><polygon class="cls-6" points="188.64 236.26 192.06 239.68 195.48 236.26 188.64 236.26"/><polygon class="cls-6" points="226.24 253.36 229.66 256.78 229.66 249.94 226.24 253.36"/><polygon class="cls-6" points="222.82 249.94 222.82 256.78 226.24 253.36 222.82 249.94"/><polygon class="cls-6" points="219.4 253.36 215.99 256.78 222.82 256.78 219.4 253.36"/><polygon class="cls-6" points="215.99 249.94 219.4 253.36 222.82 249.94 215.99 249.94"/><polygon class="cls-6" points="219.4 260.19 222.82 263.61 222.82 256.78 219.4 260.19"/><polygon class="cls-6" points="215.99 256.78 215.99 263.61 219.4 260.19 215.99 256.78"/><polygon class="cls-6" points="209.15 263.61 215.99 263.61 212.57 260.19 209.15 263.61"/><polygon class="cls-6" points="209.15 256.78 212.57 260.19 215.99 256.78 209.15 256.78"/><polygon class="cls-6" points="219.4 246.52 222.82 249.94 222.82 243.1 219.4 246.52"/><polygon class="cls-6" points="215.99 243.1 215.99 249.94 219.4 246.52 215.99 243.1"/><polygon class="cls-6" points="212.57 246.52 209.15 249.94 215.99 249.94 212.57 246.52"/><polygon class="cls-6" points="209.15 243.1 212.57 246.52 215.99 243.1 209.15 243.1"/><polygon class="cls-6" points="212.57 253.36 215.99 256.78 215.99 249.94 212.57 253.36"/><polygon class="cls-6" points="209.15 249.94 209.15 256.78 212.57 253.36 209.15 249.94"/><polygon class="cls-6" points="202.31 256.78 209.15 256.78 205.73 253.36 202.31 256.78"/><polygon class="cls-6" points="202.31 249.94 205.73 253.36 209.15 249.94 202.31 249.94"/><polygon class="cls-6" points="215.99 208.92 212.57 212.34 215.99 215.75 215.99 208.92"/><polygon class="cls-6" points="212.57 212.34 209.15 208.92 209.15 215.75 212.57 212.34"/><polygon class="cls-6" points="205.73 212.34 202.31 215.75 209.15 215.75 205.73 212.34"/><polygon class="cls-6" points="209.15 208.92 202.31 208.92 205.73 212.34 209.15 208.92"/><polygon class="cls-6" points="209.15 215.75 205.73 219.17 209.15 222.59 209.15 215.75"/><polygon class="cls-6" points="205.73 219.17 202.31 215.75 202.31 222.59 205.73 219.17"/><polygon class="cls-6" points="198.89 219.17 195.48 222.59 202.31 222.59 198.89 219.17"/><polygon class="cls-6" points="202.31 215.75 195.48 215.75 198.89 219.17 202.31 215.75"/><polygon class="cls-6" points="209.15 202.08 205.73 205.5 209.15 208.92 209.15 202.08"/><polygon class="cls-6" points="205.73 205.5 202.31 202.08 202.31 208.92 205.73 205.5"/><polygon class="cls-6" points="198.89 205.5 195.48 208.92 202.31 208.92 198.89 205.5"/><polygon class="cls-6" points="195.48 202.08 198.89 205.5 202.31 202.08 195.48 202.08"/><polygon class="cls-6" points="202.31 208.92 198.89 212.34 202.31 215.75 202.31 208.92"/><polygon class="cls-6" points="198.89 212.34 195.48 208.92 195.48 215.75 198.89 212.34"/><polygon class="cls-6" points="192.06 212.34 188.64 215.75 195.48 215.75 192.06 212.34"/><polygon class="cls-6" points="188.64 208.92 192.06 212.34 195.48 208.92 188.64 208.92"/><polygon class="cls-6" points="226.24 226.01 229.66 229.43 229.66 222.59 226.24 226.01"/><polygon class="cls-6" points="222.82 222.59 222.82 229.43 226.24 226.01 222.82 222.59"/><polygon class="cls-6" points="219.4 226.01 215.99 229.43 222.82 229.43 219.4 226.01"/><polygon class="cls-6" points="222.82 222.59 215.99 222.59 219.4 226.01 222.82 222.59"/><polygon class="cls-6" points="219.4 232.85 222.82 236.26 222.82 229.43 219.4 232.85"/><polygon class="cls-6" points="215.99 229.43 215.99 236.26 219.4 232.85 215.99 229.43"/><polygon class="cls-6" points="212.57 232.85 209.15 236.26 215.99 236.26 212.57 232.85"/><polygon class="cls-6" points="209.15 229.43 212.57 232.85 215.99 229.43 209.15 229.43"/><polygon class="cls-6" points="222.82 215.75 219.4 219.17 222.82 222.59 222.82 215.75"/><polygon class="cls-6" points="219.4 219.17 215.99 215.75 215.99 222.59 219.4 219.17"/><polygon class="cls-6" points="212.57 219.17 209.15 222.59 215.99 222.59 212.57 219.17"/><polygon class="cls-6" points="215.99 215.75 209.15 215.75 212.57 219.17 215.99 215.75"/><polygon class="cls-6" points="212.57 226.01 215.99 229.43 215.99 222.59 212.57 226.01"/><polygon class="cls-6" points="209.15 222.59 209.15 229.43 212.57 226.01 209.15 222.59"/><polygon class="cls-6" points="205.73 226.01 202.31 229.43 209.15 229.43 205.73 226.01"/><polygon class="cls-6" points="209.15 222.59 202.31 222.59 205.73 226.01 209.15 222.59"/><polygon class="cls-6" points="239.91 239.68 243.33 243.1 243.33 236.26 239.91 239.68"/><polygon class="cls-6" points="236.5 236.26 236.5 243.1 239.91 239.68 236.5 236.26"/><polygon class="cls-6" points="233.08 239.68 229.66 243.1 236.5 243.1 233.08 239.68"/><polygon class="cls-6" points="229.66 236.26 233.08 239.68 236.5 236.26 229.66 236.26"/><polygon class="cls-6" points="233.08 246.52 236.5 249.94 236.5 243.1 233.08 246.52"/><polygon class="cls-6" points="229.66 243.1 229.66 249.94 233.08 246.52 229.66 243.1"/><polygon class="cls-6" points="226.24 246.52 222.82 249.94 229.66 249.94 226.24 246.52"/><polygon class="cls-6" points="222.82 243.1 226.24 246.52 229.66 243.1 222.82 243.1"/><polygon class="cls-6" points="233.08 232.85 236.5 236.26 236.5 229.43 233.08 232.85"/><polygon class="cls-6" points="229.66 229.43 229.66 236.26 233.08 232.85 229.66 229.43"/><polygon class="cls-6" points="226.24 232.85 222.82 236.26 229.66 236.26 226.24 232.85"/><polygon class="cls-6" points="222.82 229.43 226.24 232.85 229.66 229.43 222.82 229.43"/><polygon class="cls-6" points="226.24 239.68 229.66 243.1 229.66 236.26 226.24 239.68"/><polygon class="cls-6" points="222.82 236.26 222.82 243.1 226.24 239.68 222.82 236.26"/><polygon class="cls-6" points="219.4 239.68 215.99 243.1 222.82 243.1 219.4 239.68"/><polygon class="cls-6" points="215.99 236.26 219.4 239.68 222.82 236.26 215.99 236.26"/></g><path d="M490.95,455.4l-73.13-77.06-17.79-19a4.27,4.27,0,0,0-2.56-1.3l-4.62-4.62a4.4,4.4,0,0,0-1.11-3.54L236.88,183.18a3.9,3.9,0,0,0-2.82-1.23,4.52,4.52,0,0,0-2.51.74l-6.07-3.19-.81.81-1-1,1.49-1.49-11-11-1.49,1.49-1-1,1.49-1.49-11-11-1.49,1.49-13.41-13.41-2.12-2.12-3.71-3.71L179.36,135,121.14,76.77a2.7,2.7,0,0,0-3.81,0l-5.94,5.94c-3.54-6.62-15.79-29.45-20.48-37-1.18-1.89-2.18-3.9-3.16-5.83-3.43-6.83-7-13.9-18-14.94-13-1.23-46-9.42-56.92-14.13L9.32,9.32l1.5,3.47c4.71,10.9,12.9,43.88,14.13,56.92,1,11.07,8.11,14.62,14.94,18,1.93,1,3.94,2,5.83,3.16,7.54,4.69,30.36,16.94,37,20.48l-5.94,5.94a2.7,2.7,0,0,0,0,3.81L135,179.36l2.12,2.12,3.71,3.71,2.12,2.12,13.41,13.41-1.49,1.49,11,11,1.49-1.49,1,1-1.49,1.49,11,11,1.49-1.49,1,1-.81.81,3.19,6.07a4.52,4.52,0,0,0-.73,2.5,3.9,3.9,0,0,0,1.23,2.82L349.84,391.74a4.4,4.4,0,0,0,3.53,1.11l4.62,4.62a4.27,4.27,0,0,0,1.3,2.56l19,17.72,77.12,73.19c4.06,3.85,10.69,3.42,15.09-1L490,470.49C494.37,466.09,494.8,459.46,490.95,455.4Zm-79.86-72.55-8.39,8.39-18.51-18.51,9-9,1.1,1.16ZM224.28,189.8l-11,11-2.43-2.43,10.28-10.28Zm-15.59,6.49-1-1,9.62-9.62,1,1Zm-3-3.27-5.21,5.21-6.73-6.73,5.21-5.21Zm-4.6-8.85,5.21-5.21,6.73,6.73-5.21,5.21Zm-14.67,14.67,5.21-5.21,6.73,6.73-5.21,5.21Zm4.6,8.85-5.21,5.21-6.73-6.73L184.3,201Zm19.63-33.08,6.73,6.73-2.22,2.22-6.73-6.73Zm-13.94,9.7-1-1,9.62-9.62,1,1Zm-9.45-9.72,6.46,6.46-5.21,5.21L182,179.8Zm2.12-2.12,5.21-5.21,6.46,6.46-5.21,5.21ZM182.82,149,172.61,160.2l-1.28-1.28L182,148.21Zm2.12,2.12,2,2-10.16,11.26-2.09-2.09Zm4.16,4.16,2.22,2.22-10.16,11.26-2.22-2.22Zm4.34,4.34,2,2-10.71,10.71-1.45-1.45ZM179,195.71l-5.21,5.21-6.46-6.46,5.21-5.21Zm-4.34-8.58,5.21-5.21,6.46,6.46-5.21,5.21Zm30.69-17.78-2.22,2.22-6.46-6.46,2.22-2.22Zm-25.16-23.6-11,11-3.71-3.71,11-11ZM112.87,85.48l2.84-2.84,58,58-10.51,10.51a5.32,5.32,0,0,1-2.21-1.22L106.89,95.83c-1.59-1.59-.31-4.06-.31-4.06ZM47.31,88.37c-2-1.25-4.07-2.29-6.07-3.29-6.66-3.34-12.41-6.23-13.3-15.65-1.14-12.12-8.22-41.25-13.08-54.58,13.33,4.86,42.45,11.94,54.58,13.08,9.41.89,12.3,6.64,15.65,13.3,1,2,2,4.06,3.29,6.07,4.79,7.69,18,32.38,20.81,37.62L84.93,109.18C79.69,106.38,55,93.16,47.31,88.37Zm31.8,30.87,6.37-6.37,9.75-9.75,58,58L137.1,177.23Zm60.12,60.12,13.93-13.93,3.71,3.71-13.93,13.93Zm5.83,5.83L159,171.26l1.86,1.86L147.56,187.7Zm4.63,4.63L163,175.24l2.15,2.15L151.9,192Zm6.55,6.55L154,194.16l13.21-14.64,2.22,2.22Zm2.12,2.12,13.21-14.64.82.82L158.46,198.6Zm7.46,10.44-6.46-6.46,5.89-5.89,6.46,6.46Zm3.61.63,13.93-13.93,1,1-13.93,13.93Zm8.37,11.35-6.73-6.73L177,208.3l6.73,6.73Zm4.62,1.64-1-1,13.93-13.93,1,1Zm.75,3.49,15.29-15.29,2.43,2.43-16,16Zm168.71,163.5L185.23,234.68A.93.93,0,0,1,185,234a1.59,1.59,0,0,1,.46-1.1l47.46-47.46A1.6,1.6,0,0,1,234,185a.93.93,0,0,1,.67.28L389.55,351.88a1.82,1.82,0,0,1-.31,2.45l-34.9,34.9A1.82,1.82,0,0,1,351.88,389.55Zm6.84,4.41-2.43-2.43,35.24-35.24,2.43,2.43-.75.75L359.47,393.2Zm2.62,3.88a1.35,1.35,0,0,1-.41-1,2.15,2.15,0,0,1,.66-1.53l11.52-11.52,18.51,18.51-12.31,12.31Zm107,90c-3.19,3.19-8.08,3.6-10.9.92l-76-72.09,12.24-12.24,79,79Zm19.48-19.48-4.71,4.71-78.32-79.71,8.33-8.33,36.74,40.61C456.09,424.93,491,465.18,487.85,468.36Z" transform="translate(-9.32 -9.32)"/><path d="M95.18,98.81l8.62-8.51s-1.92,1.85-3.84-1.15c-2.21-3.46-46.2-57.92-48.85-60.57S35.72,23.1,29.18,20.8s-13.86-5.23-13.86-5.23a70,70,0,0,1,3.88,9.91C19.63,27.17,32.76,40,48,54.56a7.81,7.81,0,0,0,9.28,8.81C76.23,81.3,95.18,98.81,95.18,98.81Z" transform="translate(-9.32 -9.32)"/><polygon class="cls-2" points="356.78 316.27 372.23 331.15 387.11 346.6 371.69 331.69 356.78 316.27"/><polygon class="cls-2" points="387.11 316.24 372.23 331.69 356.78 346.57 371.69 331.15 387.11 316.24"/><polygon class="cls-2" points="371.94 320.37 372.15 331.42 371.94 342.47 371.76 331.42 371.94 320.37"/><polygon class="cls-2" points="383 331.4 371.95 331.61 360.9 331.4 371.95 331.22 383 331.4"/><polygon class="cls-2" points="240.34 286.86 255.79 301.74 270.67 317.19 255.25 302.27 240.34 286.86"/><polygon class="cls-2" points="270.67 286.83 255.79 302.27 240.34 317.15 255.25 301.74 270.67 286.83"/><polygon class="cls-2" points="255.5 290.95 255.71 302 255.5 313.05 255.32 302 255.5 290.95"/><polygon class="cls-2" points="266.57 301.99 255.52 302.2 244.47 301.99 255.52 301.81 266.57 301.99"/><polygon class="cls-2" points="258.86 212.05 274.31 226.93 289.19 242.38 273.77 227.47 258.86 212.05"/><polygon class="cls-2" points="289.19 212.02 274.31 227.47 258.86 242.35 273.77 226.93 289.19 212.02"/><polygon class="cls-2" points="274.02 216.15 274.23 227.19 274.02 238.25 273.84 227.19 274.02 216.15"/><polygon class="cls-2" points="285.08 227.18 274.03 227.39 262.98 227.18 274.03 227 285.08 227.18"/><polygon class="cls-2" points="307.78 292.24 323.23 307.12 338.11 322.57 322.69 307.65 307.78 292.24"/><polygon class="cls-2" points="338.11 292.2 323.23 307.65 307.78 322.53 322.69 307.12 338.11 292.2"/><polygon class="cls-2" points="322.94 296.33 323.15 307.38 322.94 318.43 322.76 307.38 322.94 296.33"/><polygon class="cls-2" points="334 307.37 322.95 307.58 311.9 307.37 322.95 307.18 334 307.37"/><path class="cls-4" d="M59.82,50.74a7.81,7.81,0,0,1,.77,10.14A7.82,7.82,0,1,0,49.67,50,7.81,7.81,0,0,1,59.82,50.74Z" transform="translate(-9.32 -9.32)"/></svg>